<svg width="2591" height="2591" viewBox="0 0 2591 2591" fill="none" xmlns="http://www.w3.org/2000/svg">
<rect width="2590.8" height="2590.8" rx="500" fill="white"/>
<path d="M646.038 556.212H1575.28C1779.37 556.212 1944.82 721.662 1944.82 925.755V969.336C1944.82 1155.68 1806.08 1312.87 1621.18 1336.02L1575.84 1341.69L646.038 1295.5V556.212Z" fill="#003755"/>
<path d="M646.038 1295.5H1575.28C1779.37 1295.5 1944.82 1461.05 1944.82 1665.14C1944.82 1869.24 1779.37 2034.79 1575.28 2034.79H646.038V1295.5Z" fill="#003755"/>
<path d="M1411.73 707.192C1456.46 751.92 1456.46 824.439 1411.73 869.167L1131.31 1149.59C1029.76 1251.14 1029.76 1415.8 1131.31 1517.35C1232.87 1618.91 1397.52 1618.91 1499.08 1517.35L1977.26 1039.17L2136.91 1198.82L1658.85 1676.87C1468.48 1867.24 1159.83 1867.24 969.462 1676.87C779.092 1486.5 779.092 1177.85 969.462 987.484L1249.76 707.192C1294.48 662.463 1367 662.464 1411.73 707.192Z" fill="white"/>
</svg>
